<svg id="Layer_1" height="512" viewBox="0 0 512 512" width="512" xmlns="http://www.w3.org/2000/svg" data-name="Layer 1"><path d="m484.51 426.11c.18 2.4-6.05 12.29-2.21 21.68.59 1.46-.46 3.1-1.69 4.08-5.55 4.38-21.18 16.51-27.38 19.05l-.6-.17a10.813 10.813 0 0 1 -5.85-16.67c4.06-5.74 8.62-11 8.62-11 5.54-18.53 3.52-44.31-6-67.59 6.56-13.16 15.55-28.1 19.97-48.37z" fill="#9e6a5e"/><path d="m255.45 323.24c.28 23.46-11.36 37.31-10.13 53.21l-2.21 62.9a28.654 28.654 0 0 0 .85 8.04l2.5 9.94c1.9 7.53 2.65 12.42-4.74 14.88l-28.72 1.57a1.768 1.768 0 0 1 -1.67-2.59c2.33-4.4 7.21-12.94 11.99-17.17 3.82-3.39-7.83-77.9-7.83-77.9 6.4-15.72 15.59-34.21 20.23-55.04a146.746 146.746 0 0 0 19.73 2.16z" fill="#9e6a5e"/><path d="m142.09 91.99c.2 1.12 15.25 86.6 65.99 94.73 40.39 6.46 126.14-71.73 245.47-33.15 30.11 9.73 48.48 43.05 47.41 65.8l-.64 13.53-12.49-22.38c-2.33-4.17-7.9-14-11.54-10.9-1.95 1.67-2.96 3.09-3.11 4.29-2.06 16.4 15.55 13.74 7.39 56.68-2.46 12.96-8.9 24.88-8.57 38.07a118.128 118.128 0 0 1 -2.63 28.45v.01c-4.42 20.27-13.41 35.21-19.97 48.37a83.485 83.485 0 0 0 -6.64 16.58l-22.05 58.97a28.937 28.937 0 0 0 -1.73 7.9l-.78 10.21c-.59 7.74-8.04 13.73-15.83 13.73h-23.84a7.827 7.827 0 0 1 -7.83-7.85 13.1 13.1 0 0 1 8.5-12.26l13.74-5.15a12.514 12.514 0 0 0 8.05-10.44c1.43-13.88 11.14-30.06 10.54-55.11-.26-10.77 2.15-33.32 4.07-49.3a90.812 90.812 0 0 0 -1-28.73 160.475 160.475 0 0 1 -2.47-20.92c-9.83-4.25-25.51-3.57-36.44-1.08a96.666 96.666 0 0 0 -26.62 10.65c-34.35 19.77-71.54 21.69-93.62 20.55a146.746 146.746 0 0 1 -19.73-2.16c-4.64 20.83-13.83 39.32-20.23 55.04a122.208 122.208 0 0 0 -5.51 15.95l-22.05 58.97a28.953 28.953 0 0 0 -1.74 7.9l-.78 10.21a14.864 14.864 0 0 1 -14.84 13.73h-23.82a7.853 7.853 0 0 1 -7.86-7.85 13.1 13.1 0 0 1 8.52-12.26l13.87-5.2a12.243 12.243 0 0 0 7.89-10.23c1.37-13.91 11.16-30.12 10.55-55.27-.26-10.76 2.15-33.27 4.07-49.26a91.105 91.105 0 0 0 -1.01-28.82c-.45-2.27-.84-4.69-1.18-7.21-38.24-20.76-50.23-68.25-59.91-110-7.44-32.08-37.2-50.35-37.2-50.35v-.03a68.435 68.435 0 0 1 -17.55-1.81 144.715 144.715 0 0 0 -40.44-3.41 11.862 11.862 0 0 1 -11.38-6.78l-3.35-7.1a8.052 8.052 0 0 1 3.56-10.57l26.07-13.58a81.942 81.942 0 0 0 21.31-15.77c8.38-8.71 25.46-20.65 52.5-13.87 0 0-4.44-37.15 44.54-44.37a1.975 1.975 0 0 1 2.12 1.26c2.45 6.67 10.34 34.96-19.78 61.58z" fill="#bc806f"/><g fill="#cc8e7f"><path d="m46.326 116.73 26.074-13.58a81.942 81.942 0 0 0 21.31-15.77 51.906 51.906 0 0 1 19.392-12.8c16.158-5.938 31-15.271 42.161-28.378a41.327 41.327 0 0 1 8.7-7.649 45.5 45.5 0 0 0 -2.093-8.153 1.975 1.975 0 0 0 -2.12-1.26c-48.98 7.22-44.54 44.37-44.54 44.37-27.04-6.78-44.12 5.16-52.5 13.87a81.942 81.942 0 0 1 -21.31 15.77l-26.07 13.58a8.052 8.052 0 0 0 -3.56 10.57l3.35 7.1a11.862 11.862 0 0 0 11.38 6.78 148.679 148.679 0 0 1 22.4.461c-1.149-3.032-2.112-5.808-2.788-7.241l-3.35-7.1a8.052 8.052 0 0 1 3.564-10.57z"/><path d="m213.776 313.99c-.022-.108-.043-.216-.064-.324a16.28 16.28 0 0 0 -7.04-10.448c-33.594-22.27-44.825-66.925-53.987-106.438q-.231-1-.493-1.987c-7.61-28.722-34.136-48.363-63.849-48.363h-3.853s29.76 18.27 37.2 50.35c9.68 41.75 21.67 89.24 59.91 110 .34 2.52.73 4.94 1.18 7.21a91.105 91.105 0 0 1 1.01 28.82c-1.92 15.99-4.33 38.5-4.07 49.26.61 25.15-9.18 41.36-10.55 55.27a12.243 12.243 0 0 1 -7.89 10.23l-13.87 5.2a13.1 13.1 0 0 0 -8.52 12.26 7.853 7.853 0 0 0 7.86 7.85 43.984 43.984 0 0 0 36.836-19.949l2.6-3.991a28.953 28.953 0 0 1 1.74-7.9l22.05-58.97c.217-.866.464-1.747.723-2.636.115-11.492 2.308-31.841 4.083-46.624a91.105 91.105 0 0 0 -1.006-28.82z"/></g></svg>